<?xml version="1.0" encoding="utf-8"?>
<!-- Generator: Adobe Illustrator 22.0.0, SVG Export Plug-In . SVG Version: 6.00 Build 0)  -->
<svg version="1.1" id="Layer_1" xmlns="http://www.w3.org/2000/svg" xmlns:xlink="http://www.w3.org/1999/xlink" x="0px" y="0px"
	 viewBox="0 0 612 504.6" style="enable-background:new 0 0 612 504.6;" xml:space="preserve">
<style type="text/css">
	.st0{fill:#00A7E3;}
	.st1{fill:#FCFDFF;}
	.st2{fill:#2C5698;}
	.st3{fill:#FFFFFF;}
</style>
<g id="XMLID_1_">
	<path id="XMLID_19_" class="st0" d="M527.6,504.6H85.7C42,503.3,1.9,458.6,4,421.1c0-0.1,1-11.4,1-11.5l24.6-266.7
		c0-0.1,0-0.2,0-0.3c7-43.2,47.1-76.8,90.1-84.1L489.6,4.8c102-13.4,118.3,81.1,118.3,105.5v314C607.9,468.6,572,504.6,527.6,504.6z
		"/>
	<path id="XMLID_18_" class="st1" d="M514.4,481.7H103.6c-0.8,0-7,0-7.8,0c-40.6-1.9-71.5-36.6-67.3-77.7l23.1-245.6
		c0.3-2.8,0.6-5.6,1.3-8.3c8.5-36.7,44.1-65,82.1-71.3l348.2-49.4C579.4,17.8,585,106.4,585,121.2v291.3
		C585,450.4,553.6,481.7,514.4,481.7z"/>
	<path id="XMLID_17_" class="st2" d="M502.7,465.9h-392c-0.8,0-1.5,0-2.3,0c-38.1-1.2-66.9-35.2-63.3-73.1L66.7,167
		c0.3-3.4,0.9-6.8,1.8-10.1c8.8-33,41.7-58.2,76.8-63.9l327.9-45.7c88.5-11.2,95.9,69.2,95.9,85v269.6
		C569.1,437.2,539.4,465.9,502.7,465.9z"/>
	<g id="XMLID_2_">
		<path id="XMLID_16_" class="st3" d="M261.3,302.2c-3.5,0-5.8-2.2-5.8-5.5l-6.5-62.2l-24.7,59.4c-1.6,3.5-3.7,4.2-5.2,4.2h-6.4
			c-1.5,0-3.6-0.7-5.1-4.1L183,234.5l-6.5,62.2c-0.1,3.4-2.3,5.5-5.7,5.5h-6.8c-3.5,0-5.8-2.2-5.8-5.7v-0.2l10.4-91.7
			c0-1.6,0.8-3.1,2-4.1c1.1-0.9,2.5-1.4,3.9-1.4h10.1c2.6,0,4.6,1.6,5.5,4.3l25.8,63.2l26.1-63.1c0.4-1.2,1-2.3,1.9-3
			c1-0.9,2.2-1.3,3.5-1.3h10.4c2.2,0,3.5,1,4.2,1.8c0.9,1,1.4,2.3,1.5,3.7l10.4,91.7v0.2c0,3.5-2.2,5.7-5.7,5.7H261.3z"/>
		<path id="XMLID_13_" class="st3" d="M331.5,303.5c-4.1,0-8.2-0.6-12.1-1.6c-3.9-1.1-7.6-2.7-10.9-4.7c-3.4-2-6.5-4.4-9.3-7.2
			c-2.8-2.8-5.2-5.9-7.2-9.3c-2-3.4-3.6-7.1-4.7-11c-1.1-3.9-1.6-8-1.6-12.1s0.6-8.3,1.6-12.1c1.1-3.9,2.7-7.6,4.7-10.9
			c2-3.4,4.4-6.5,7.2-9.3c2.8-2.8,5.9-5.2,9.3-7.2c3.4-2,7.1-3.6,10.9-4.6c3.9-1.1,7.9-1.6,12.1-1.6c6.2,0,12,1.2,17.3,3.6
			c3.3,1.5,6.3,3.3,9.2,5.4v-1.7c0-3.5,2.2-5.7,5.7-5.7h6.8c3.6,0,5.9,2.2,5.9,5.7v77.6c0,1.7-0.6,3.1-1.8,4.2c-1.1,1-2.5,1.5-4,1.5
			h-6.8c-1.7,0-3.2-0.6-4.2-1.7c-1-1.1-1.6-2.5-1.6-4v-1.9c-2.8,2.1-5.9,4-9.2,5.4C343.5,302.3,337.7,303.5,331.5,303.5z
			 M331.5,229.6c-3.7,0-7.2,0.8-10.4,2.2c-3.3,1.5-6.2,3.6-8.6,6.1c-2.4,2.5-4.4,5.5-5.8,8.9c-1.4,3.4-2.1,7-2.1,10.7
			c0,3.7,0.7,7.3,2.1,10.7c1.4,3.4,3.4,6.5,5.8,9.1c2.4,2.6,5.3,4.7,8.6,6.2c3.2,1.5,6.7,2.3,10.4,2.3c3.7,0,7.2-0.8,10.4-2.3
			c3.3-1.5,6.2-3.6,8.7-6.2c2.5-2.6,4.4-5.7,5.9-9.1c1.4-3.4,2.1-7,2.1-10.7c0-3.7-0.7-7.3-2.1-10.7c-1.4-3.4-3.4-6.4-5.8-8.9
			c-2.4-2.5-5.4-4.6-8.7-6.1C338.7,230.3,335.2,229.6,331.5,229.6z"/>
		<path id="XMLID_12_" class="st3" d="M452.2,302.2c-1.4,0-2.7-0.4-3.8-1.1c-0.8-0.6-1.6-1.4-2.4-2.4l-0.1-0.2l-18.4-28.2
			l-18.4,28.3l-0.1,0.1c-0.8,1-1.6,1.8-2.4,2.4c-1.1,0.8-2.3,1.1-3.8,1.1h-9.6c-3.5,0-4.4-2-4.6-2.9c-0.3-1.3,0-2.7,1-4.3l27.1-39.3
			c-2.3-3.4-4.4-6.4-6.3-9.2c-2.1-3.1-4.2-6.1-6.1-8.8c-1.9-2.8-9.5-13.6-11.6-16.7c-0.6-0.9-2.4-3.6-0.8-5.9
			c1.2-1.7,3.3-1.9,4.8-1.9h8.5c0.7,0,1.4,0.1,2,0.2c0.8,0.2,1.5,0.5,2.1,1c0.5,0.4,1,0.8,1.5,1.4l1.2,1.5l15.4,23.7l15.4-23.7
			l1.2-1.5c0.4-0.5,0.9-1,1.5-1.4c0.6-0.5,1.3-0.8,2.1-1c0.6-0.1,1.3-0.2,2-0.2h8.5c1.5,0,3.6,0.2,4.8,1.9c1.6,2.3-0.2,5-0.8,5.9
			c-2.2,3.1-4.2,6-6,8.6c-1.8,2.6-3.7,5.4-5.6,8.1c-1.9,2.7-3.9,5.7-6.1,8.8c-1.9,2.7-3.9,5.8-6.3,9.2l27,39.2
			c1.1,1.6,1.4,3.1,1.1,4.4c-0.2,0.9-1.1,2.9-4.6,2.9H452.2z"/>
		<path id="XMLID_11_" class="st3" d="M177.9,416c-3.3,0-5.5-2.1-5.6-5.3l-5.9-56.4L144,408.1c-1.5,3.3-3.6,4-5,4h-5.9
			c-1.4,0-3.4-0.7-4.9-3.9L106,354.3l-5.9,56.3c-0.1,3.2-2.2,5.3-5.5,5.3h-6.3c-3.4,0-5.6-2.2-5.6-5.5v-0.2l9.5-84.3
			c0-1.6,0.7-3,2-3.9c1.1-0.9,2.4-1.3,3.8-1.3h9.3c2.5,0,4.4,1.5,5.3,4.1l23.6,57.6l23.8-57.6c0.4-1.2,1-2.1,1.8-2.9
			c0.9-0.8,2.1-1.3,3.3-1.3h9.6c2.1,0,3.4,0.9,4.1,1.7c0.9,1,1.4,2.2,1.4,3.6l9.5,84.3v0.2c0,3.3-2.2,5.5-5.5,5.5H177.9z"/>
		<path id="XMLID_8_" class="st3" d="M240.3,417.3c-3.8,0-7.6-0.5-11.2-1.5c-3.6-1-7-2.5-10.1-4.3c-3.1-1.8-6-4.1-8.6-6.7
			c-2.6-2.6-4.8-5.5-6.7-8.6c-1.8-3.1-3.3-6.5-4.3-10.1c-1-3.6-1.6-7.4-1.6-11.3c0-5.8,1.1-11.4,3.4-16.5c2.2-5.1,5.3-9.7,9.2-13.5
			c3.8-3.9,8.4-6.9,13.5-9.2c5.1-2.2,10.7-3.4,16.4-3.4c3.8,0,7.6,0.5,11.2,1.5c3.6,1,7,2.5,10.1,4.3c3.1,1.9,6,4.1,8.6,6.7
			c2.6,2.6,4.8,5.5,6.7,8.6c1.9,3.1,3.3,6.6,4.3,10.1c1,3.6,1.5,7.4,1.5,11.2c0,3.9-0.5,7.6-1.5,11.2c-1,3.6-2.5,7-4.3,10.1
			c-1.9,3.1-4.1,6-6.7,8.6c-2.6,2.6-5.5,4.8-8.6,6.7c-3.1,1.8-6.5,3.3-10.1,4.3C247.9,416.8,244.2,417.3,240.3,417.3z M240.3,349.1
			c-3.4,0-6.6,0.7-9.5,2.1c-3,1.4-5.7,3.3-7.9,5.7c-2.2,2.4-4.1,5.2-5.4,8.3c-1.3,3.1-2,6.4-2,9.7c0,3.4,0.7,6.7,1.9,9.8
			c1.3,3.1,3.1,5.8,5.3,8.1c2.2,2.3,4.9,4.2,7.9,5.6c2.9,1.4,6.2,2,9.6,2c3.4,0,6.5-0.7,9.5-2c3-1.4,5.6-3.2,7.8-5.5
			c2.2-2.3,4-5,5.3-8.1c1.3-3.1,1.9-6.3,1.9-9.8c0-3.4-0.6-6.6-1.9-9.7c-1.3-3.1-3.1-5.9-5.3-8.3c-2.2-2.4-4.9-4.3-7.8-5.7
			C246.8,349.8,243.7,349.1,240.3,349.1z"/>
		<path id="XMLID_7_" class="st3" d="M353.5,416c-0.9,0-3.7,0-5.2-2.1c-0.8-1.1-1.1-2.6-1.1-4.6V368c0-2.2-0.3-4.4-0.9-6.7
			c-0.6-2.2-1.5-4.1-2.8-5.9c-1.2-1.7-2.9-3.1-5-4.2c-2.1-1.1-4.7-1.6-7.9-1.6c-2,0-4.1,0.4-6.2,1.1c-2.1,0.7-4.1,1.8-5.8,3.2
			c-1.7,1.4-3.1,3.1-4.3,5.1c-1.1,1.9-1.6,4.2-1.6,6.8v44.6c0,3.3-2.2,5.5-5.5,5.5h-6.2c-3.4,0-5.7-2.2-5.7-5.5v-71.3
			c0-1.6,0.6-3,1.7-4c1-1,2.4-1.5,3.8-1.5h6.3c1.6,0,3,0.6,4.1,1.7c1,1,1.5,2.4,1.5,3.8v0.4c1.3-1.1,2.7-2.2,4.2-3.1
			c1.9-1.2,4.1-2.2,6.5-2.9c2.4-0.7,5.1-1.1,8-1.1c5.3,0,10.1,0.9,14.3,2.8c4.1,1.9,7.7,4.5,10.5,7.7c2.8,3.2,4.9,7.1,6.3,11.4
			c1.4,4.3,2.1,8.9,2.1,13.7v41c0,2.2-0.6,3.9-1.9,5.1c-1.2,1.2-2.8,1.8-4.7,1.8H353.5z"/>
		<path id="XMLID_4_" class="st3" d="M418.4,417.3c-3.8,0-7.6-0.5-11.2-1.5c-3.6-1-7-2.5-10.1-4.3c-3.1-1.9-6.1-4.1-8.6-6.7
			c-2.6-2.6-4.9-5.4-6.7-8.6c-1.9-3.1-3.4-6.5-4.4-10.1c-1-3.6-1.6-7.4-1.6-11.3c0-3.8,0.5-7.6,1.5-11.2c1-3.6,2.4-7,4.1-10.1
			c1.8-3.1,4-6,6.5-8.6c2.5-2.6,5.4-4.8,8.6-6.7c3.2-1.8,6.6-3.3,10.3-4.3c3.7-1,7.6-1.5,11.6-1.5c3.2,0,6.5,0.4,9.6,1.1
			c3.2,0.7,6.2,1.8,9.2,3.2c2.9,1.4,5.7,3.1,8.3,5.2c2.6,2.1,4.9,4.5,6.9,7.1c2.8,3.7,4.9,8,6.2,12.8c1.3,4.7,1.9,10.1,1.9,16.1
			c0,3.4-2.2,5.6-5.5,5.6H395c0.6,1.6,1.3,3.2,2.2,4.6c1.5,2.5,3.4,4.7,5.6,6.5c2.1,1.8,4.6,3.3,7.2,4.3c2.6,1,5.3,1.5,8.1,1.5
			c2,0,3.8-0.2,5.4-0.6c1.6-0.4,3-0.9,4.3-1.5c1.3-0.6,2.5-1.4,3.6-2.2c1.2-0.8,2.3-1.7,3.4-2.6l0.1-0.1c0.5-0.4,1-0.8,1.5-1.1
			c0.9-0.6,1.9-0.9,2.9-0.9c1,0,2.6,0.4,4,2.2l2,2.7c0.5,0.7,0.9,1.2,1.2,1.5c0.4,0.5,0.6,0.8,0.7,1c0.3,0.4,0.6,0.9,0.8,1.3
			c0.3,0.6,0.4,1.3,0.4,2.1c0,1-0.3,2-1,3c-0.5,0.7-1.3,1.5-2.3,2.4c-1.8,1.5-3.8,2.8-5.7,3.9c-2,1.2-4.1,2.2-6.3,3.1
			c-2.2,0.9-4.5,1.5-7,2C423.7,417.1,421.1,417.3,418.4,417.3z M442.4,366.1c-0.5-1.7-1.2-3.3-2.1-4.8c-1.4-2.4-3.3-4.5-5.4-6.2
			c-2.2-1.7-4.7-3.1-7.5-4c-2.8-1-5.7-1.4-8.6-1.4c-2.4,0-4.7,0.3-7,0.9c-2.3,0.6-4.5,1.6-6.5,2.8c-2.7,1.8-5.1,4.2-7.1,7
			c-1.3,1.8-2.3,3.8-3.1,5.8H442.4z"/>
		<path id="XMLID_3_" class="st3" d="M491,439.2c-4.2,0-5.7-2.7-5.7-5.1c0-0.5,0.1-1.1,0.2-1.6l0-0.1v-0.3l9.8-23.8l-27.6-67.1
			c-0.1-0.3-0.2-0.6-0.2-0.8c-0.1-0.6-0.2-1.2-0.2-1.9c0-2.3,1.5-4.9,5.6-4.9h6.3c1.4,0,2.7,0.4,3.7,1.2c0.9,0.7,1.6,1.7,2.1,2.8
			c0.8,2.1,1.8,4.6,3,7.7c1.2,3.1,2.5,6.4,3.9,10s2.9,7.3,4.4,11.1c1.5,3.8,3,7.5,4.3,10.9c1.4,3.5,3.9,9.6,3.9,9.6
			c0-0.1,0-0.1,0.1-0.2c1.1-2.8,2.4-6,3.7-9.5c1.3-3.5,2.8-7.1,4.3-11c1.5-3.8,2.9-7.5,4.3-11.1c1.4-3.6,2.7-6.9,3.9-10
			c1.2-3.1,2.2-5.6,2.9-7.7c0.5-1.2,1.2-2.2,2.1-2.9c1-0.8,2.3-1.2,3.7-1.2h6.7c4,0,5.5,2.7,5.5,4.9c0,0.4,0,0.7-0.1,1.1
			c-0.1,0.3-0.2,0.6-0.3,0.9l-0.1,0.3l-0.1,0.4l-14.2,34.9l-24.1,59.2l0,0c-1,2.5-3.1,3.9-5.8,3.9H491z"/>
	</g>
</g>
</svg>
